<?xml version="1.0" standalone="no"?>
<!DOCTYPE svg PUBLIC "-//W3C//DTD SVG 20010904//EN"
 "http://www.w3.org/TR/2001/REC-SVG-20010904/DTD/svg10.dtd">
<svg version="1.0" xmlns="http://www.w3.org/2000/svg"
 width="272.000000pt" height="272.000000pt" viewBox="0 0 272.000000 272.000000"
 preserveAspectRatio="xMidYMid meet">
<metadata>
Created by potrace 1.11, written by Peter Selinger 2001-2013
</metadata>
<g transform="translate(0.000000,272.000000) scale(0.100000,-0.100000)"
fill="#000000" stroke="none">
<path d="M1063 2706 c-231 -44 -355 -194 -309 -373 15 -60 121 -224 900 -1396
104 -156 124 -171 149 -119 7 15 87 221 178 459 l164 431 3 -364 c1 -250 -1
-371 -9 -385 -6 -12 -26 -27 -45 -35 -29 -12 -34 -19 -34 -47 0 -18 5 -38 12
-45 8 -8 67 -12 199 -12 204 0 199 -2 199 60 0 23 -7 32 -35 46 -68 32 -65 7
-65 554 0 547 -3 522 65 554 28 14 35 22 35 46 l0 30 -158 0 -158 0 -77 -192
c-120 -303 -273 -691 -281 -712 -7 -21 -4 -26 -187 244 -58 85 -222 326 -364
534 -142 209 -262 394 -268 412 -8 26 -6 40 12 76 56 116 261 132 356 27 32
-36 68 -101 88 -161 7 -21 66 -25 85 -6 8 8 12 60 12 170 l0 158 -24 6 c-13 3
-37 4 -52 3 -16 -2 -60 7 -99 20 -87 28 -198 35 -292 17z"/>
<path d="M317 2104 c-4 -4 -7 -24 -7 -45 0 -32 5 -40 35 -59 19 -12 40 -30 45
-40 6 -12 10 -200 10 -494 0 -470 0 -476 -21 -497 -12 -12 -41 -30 -65 -40
-39 -18 -44 -24 -44 -52 0 -58 0 -58 196 -55 l179 3 3 41 c3 41 2 42 -50 72
-30 16 -59 36 -66 45 -9 11 -12 101 -10 375 l3 361 395 -546 c535 -739 540
-746 540 -800 0 -84 -69 -171 -152 -194 -107 -29 -227 6 -298 87 -35 41 -80
128 -80 157 0 35 -20 57 -50 57 -40 0 -45 -20 -45 -215 l0 -160 30 -1 c17 0
58 -15 92 -32 162 -83 368 -82 526 1 77 40 160 130 183 199 23 69 22 168 -3
233 -11 28 -253 399 -538 825 l-519 775 -141 3 c-78 1 -144 -1 -148 -4z"/>
</g>
</svg>
