<svg height="512pt" viewBox="-39 0 512 512" width="512pt" xmlns="http://www.w3.org/2000/svg" fill="rgb(112, 112, 112)"><path d="m333.335938 0h-115.335938c-55.140625 0-100 44.859375-100 100v58.789062c-66.648438 9.71875-118 67.242188-118 136.546876 0 11.042968 8.953125 20 20 20h236c11.046875 0 20-8.957032 20-20 0-69.304688-51.351562-126.828126-118-136.546876v-58.789062c0-33.085938 26.914062-60 60-60h115.332031c33.085938 0 60 26.914062 60 60v392c0 11.046875 8.953125 20 20 20s20-8.953125 20-20v-392c.003907-55.140625-44.859375-100-99.996093-100zm-99.386719 275.332031h-191.898438c9.257813-44.480469 48.761719-78 95.949219-78s86.691406 33.519531 95.949219 78zm-75.949219 88.835938v30c0 11.046875-8.953125 20-20 20s-20-8.953125-20-20v-30c0-11.046875 8.953125-20 20-20s20 8.953125 20 20zm-.238281 97.832031v30c0 11.046875-8.953125 20-20 20-11.042969 0-20-8.953125-20-20v-30c0-11.046875 8.957031-20 20-20 11.046875 0 20 8.953125 20 20zm-78.308594-97.832031v30c0 11.046875-8.957031 20-20 20-11.046875 0-20-8.953125-20-20v-30c0-11.046875 8.953125-20 20-20 11.042969 0 20 8.953125 20 20zm-.238281 97.832031v30c0 11.046875-8.953125 20-20 20s-20-8.953125-20-20v-30c0-11.046875 8.953125-20 20-20s20 8.953125 20 20zm157.097656-97.832031v30c0 11.046875-8.957031 20-20 20-11.046875 0-20-8.953125-20-20v-30c0-11.046875 8.953125-20 20-20 11.042969 0 20 8.953125 20 20zm-.238281 97.832031v30c0 11.046875-8.957031 20-20 20-11.046875 0-20-8.953125-20-20v-30c0-11.046875 8.953125-20 20-20 11.042969 0 20 8.953125 20 20zm0 0"/></svg>