<svg height="512pt" viewBox="0 0 512 512" width="512pt" xmlns="http://www.w3.org/2000/svg" fill="rgb(112, 112, 112)"><path d="m467 241h-241c-24.8125 0-45 20.1875-45 45v15h-8.070312c5.121093-8.832031 8.070312-19.074219 8.070312-30 0-33.085938-26.914062-60-60-60s-60 26.914062-60 60c0 10.925781 2.949219 21.167969 8.070312 30h-39.070312v-135c0-8.285156-6.714844-15-15-15s-15 6.714844-15 15v331c0 8.285156 6.714844 15 15 15s15-6.714844 15-15v-46h452v46c0 8.285156 6.714844 15 15 15s15-6.714844 15-15v-211c0-24.8125-20.1875-45-45-45zm-256 45c0-8.269531 6.730469-15 15-15h241c8.269531 0 15 6.730469 15 15v75h-271zm-120-15c0-16.542969 13.457031-30 30-30s30 13.457031 30 30-13.457031 30-30 30-30-13.457031-30-30zm-61 150v-90h151v45c0 8.285156 6.714844 15 15 15h286v30zm0 0"/><path d="m152.140625 170.738281c2.324219 5.605469 7.792969 9.261719 13.859375 9.261719h60c8.285156 0 15-6.714844 15-15s-6.714844-15-15-15h-23.785156l34.390625-34.394531c4.289062-4.289063 5.574219-10.742188 3.253906-16.347657-2.324219-5.601562-7.792969-9.257812-13.859375-9.257812h-60c-8.285156 0-15 6.714844-15 15s6.714844 15 15 15h23.785156l-34.390625 34.394531c-4.289062 4.289063-5.574219 10.742188-3.253906 16.34375zm0 0"/><path d="m272.140625 80.738281c2.324219 5.605469 7.792969 9.261719 13.859375 9.261719h60c8.285156 0 15-6.714844 15-15s-6.714844-15-15-15h-23.785156l34.390625-34.394531c4.292969-4.289063 5.574219-10.742188 3.253906-16.347657-2.324219-5.601562-7.792969-9.257812-13.859375-9.257812h-60c-8.285156 0-15 6.714844-15 15s6.714844 15 15 15h23.785156l-34.390625 34.394531c-4.289062 4.289063-5.574219 10.742188-3.253906 16.34375zm0 0"/></svg>