<?xml version="1.0" encoding="utf-8"?><svg version="1.1" xmlns="http://www.w3.org/2000/svg" xmlns:xlink="http://www.w3.org/1999/xlink" x="0px" y="0px" viewBox="0 0 1014.6 240.2" style="enable-background:new 0 0 1014.6 240.2;" xml:space="preserve"><style type="text/css">.st0{fill:none;stroke:#000000;stroke-width:3;stroke-linecap:round;stroke-linejoin:round;stroke-miterlimit:10;}.st1{stroke:#000000;stroke-miterlimit:10;}.st2{fill:#CC3234;stroke:#CC3234;stroke-width:4;stroke-linecap:round;stroke-linejoin:round;stroke-miterlimit:10;}.st3{fill:none;stroke:#000000;stroke-width:6;stroke-linecap:round;stroke-linejoin:round;stroke-miterlimit:10;}.st4{stroke:#000000;stroke-width:3;stroke-miterlimit:10;}.st5{fill:#CC3234;stroke:#CC3234;stroke-width:8;stroke-linecap:round;stroke-linejoin:round;stroke-miterlimit:10;}.st6{fill:none;stroke:#000000;stroke-width:4;stroke-linecap:round;stroke-linejoin:round;stroke-miterlimit:10;}.st7{stroke:#000000;stroke-width:2;stroke-miterlimit:10;}.st8{fill:#CC3234;stroke:#CC3234;stroke-width:6;stroke-linecap:round;stroke-linejoin:round;stroke-miterlimit:10;}</style><g id="Layer_2"></g><g id="Layer_1"></g><g id="Layer_3"><path class="st0" d="M274.2,177.9H25.7c-10.5,0-19.1-8.5-19.1-19.1V23.1C6.6,12.5,15.1,4,25.7,4h963.2c10.5,0,19.1,8.5,19.1,19.1v135.7c0,10.5-8.5,19.1-19.1,19.1H739.5"/><path class="st1" d="M330,212.9c0.5-0.3,0.9-0.3,1.4-0.1c0.5,0.2,0.8,0.6,0.8,1c0.1,0.4-0.1,0.8-0.5,1.1c-1.4,0.9-2.8,1.8-4.2,2.5c-1.4,0.8-3,1.5-4.8,2.2c-1.8,0.7-3.5,1.2-5.2,1.6c-1.7,0.4-3.4,0.5-5.2,0.5c-1.8-0.1-3.4-0.4-4.9-1c-1.3-0.6-2.4-1.4-3.3-2.4c-0.9-1-1.6-2.1-2.1-3.3c-0.5-1.2-0.8-2.5-1-4c-0.2-1.5-0.3-2.8-0.2-4.1c0-1.3,0.2-2.6,0.3-4c0.6-4.5,1.4-9.1,2.3-13.7c0.9-4.6,2.2-9.6,3.6-14.9c1.5-5.3,2.7-9.6,3.8-13c1-3.4,2.5-8.1,4.4-14.1c0.2-0.5,0.5-0.8,0.9-0.9c0.5,0,0.9,0.1,1.3,0.5c0.4,0.4,0.4,0.8,0.3,1.3c-5.6,17.7-9.6,32.5-12.1,44.6c-0.1,0.5-0.4,1.6-0.7,3.2c-0.4,1.6-0.6,2.9-0.8,3.7s-0.4,2-0.6,3.5c-0.2,1.5-0.3,2.8-0.3,3.8c0,1,0.1,2.2,0.3,3.4c0.2,1.3,0.5,2.4,0.9,3.4c0.7,1.6,1.7,2.9,2.9,3.7c1.3,0.9,2.7,1.3,4.3,1.4c1.6,0.1,3.2,0,4.9-0.3c1.7-0.3,3.4-0.8,5.2-1.5c1.7-0.7,3.3-1.4,4.7-2.1C327.6,214.4,328.8,213.6,330,212.9z"/><path class="st1" d="M349.2,188.3c0.4,0,0.7,0.1,1,0.3c0.3,0.2,0.4,0.6,0.5,0.9c0,0.4-0.1,0.7-0.3,0.9c-0.2,0.3-0.4,0.5-0.7,0.8c-0.2,0.3-0.6,0.7-1,1.1c-0.4,0.5-0.9,0.9-1.3,1.3c-0.5,0.4-1,0.9-1.6,1.4c-0.6,0.5-1.2,1-1.7,1.4c-0.6,0.4-1.1,0.8-1.8,1.1c-0.6,0.3-1.3,0.6-1.8,0.8c-0.6,0.2-1.2,0.2-1.8,0.2c-0.6,0-1.2-0.1-1.7-0.4c-1.4-0.7-1.9-2.7-1.4-6.1c-3.2,4.8-5.9,7.1-8.2,7.1c-0.3,0-0.6,0-0.9-0.1c-0.9-0.3-1.6-0.9-1.9-1.8c-0.3-0.6-0.4-1.3-0.4-2.2c0-0.9,0.1-1.8,0.3-2.8c0.2-1,0.5-1.9,0.7-2.9c0.3-0.9,0.6-1.9,1-2.8c0.4-0.9,0.7-1.7,0.9-2.2c0.2-0.5,0.4-1,0.6-1.4c0.2-0.3,0.4-0.6,0.7-0.7c0.3-0.1,0.7-0.1,1,0.1c0.3,0.2,0.6,0.4,0.7,0.7c0.1,0.3,0.1,0.7-0.1,1c-1.1,2.2-2,4.6-2.7,7.1c-0.7,2.5-0.9,4.2-0.5,5.1c0,0.2,0.1,0.2,0.3,0.3c1,0.3,2.6-1.1,4.9-4.3c2.3-3.2,4.4-6.8,6.4-10.9c0.2-0.3,0.4-0.6,0.7-0.7s0.7-0.1,1,0c0.3,0.1,0.6,0.4,0.7,0.7c0.2,0.3,0.2,0.7,0,1c-1.1,3.1-1.9,6-2.5,8.7c-0.6,2.7-0.6,4.3-0.3,4.8c0.6,0.3,1.6,0.1,2.9-0.7c1.3-0.7,2.5-1.7,3.8-2.9c1.3-1.2,2.4-2.4,3.4-3.6C348.6,188.5,348.9,188.3,349.2,188.3z"/><path class="st1" d="M372.1,186.7c0.4,0,0.7,0.1,1,0.3c0.3,0.2,0.5,0.5,0.5,0.9c0,0.4-0.1,0.7-0.3,1c-0.3,0.4-0.7,0.8-1.1,1.3c-0.4,0.5-1.1,1.3-2,2.3c-0.9,1-1.9,1.9-2.9,2.8c-1,0.9-2.1,1.7-3.2,2.6c-1.2,0.9-2.3,1.5-3.6,2.1c-1.2,0.5-2.4,0.8-3.4,0.8c-0.3,0-0.7,0-1-0.1c-1.9-0.3-3.5-1.7-4.7-4c-1.9,2.7-3.4,5-4.4,7c-0.2,0.5-0.6,0.7-1.2,0.7c-0.2,0-0.4,0-0.6-0.1c-0.3-0.2-0.6-0.4-0.7-0.7c-0.1-0.3-0.1-0.7,0.1-1c1.1-2.4,3-5.3,5.6-8.7c-1.1-3.2-1.7-6.9-1.8-10.9c0-0.4,0.1-0.7,0.4-1c0.2-0.3,0.6-0.4,0.9-0.4c0.2,0,0.3,0,0.5,0.1c0.2,0.1,0.3,0.2,0.5,0.3c0.1,0.1,0.2,0.2,0.3,0.4c0.1,0.2,0.1,0.3,0.1,0.5c0.1,2.8,0.4,5.5,1.1,8.3c1.9-2.4,3.7-4.4,5.3-6.1c1.6-1.7,2.7-2.6,3.2-2.7c0.5-0.1,0.9,0,1.2,0.3c0.3,0.3,0.4,0.6,0.4,0.9c0,0.4-0.1,0.7-0.3,0.9c-0.2,0.2-0.3,0.3-0.6,0.3c-0.3,0.2-0.7,0.6-1.2,1.1c-0.6,0.6-1.2,1.3-1.9,2.1c-0.7,0.8-1.5,1.7-2.5,2.8c-0.9,1.1-1.8,2.2-2.6,3.3c0.9,2.3,2,3.6,3.4,3.8c1.3,0.2,2.9-0.3,4.8-1.5c2-1.2,3.8-2.7,5.4-4.3c1.7-1.7,3.2-3.3,4.5-5C371.5,186.9,371.8,186.7,372.1,186.7z"/><path class="st1" d="M394.4,188.3c0.4,0,0.7,0.1,1,0.3c0.3,0.2,0.4,0.6,0.5,0.9c0,0.4-0.1,0.7-0.3,0.9c-0.2,0.3-0.4,0.5-0.7,0.8c-0.2,0.3-0.6,0.7-1,1.1c-0.4,0.5-0.9,0.9-1.3,1.3c-0.5,0.4-1,0.9-1.6,1.4c-0.6,0.5-1.2,1-1.7,1.4c-0.6,0.4-1.1,0.8-1.8,1.1c-0.6,0.3-1.3,0.6-1.8,0.8c-0.6,0.2-1.2,0.2-1.8,0.2c-0.6,0-1.2-0.1-1.7-0.4c-1.4-0.7-1.9-2.7-1.4-6.1c-3.2,4.8-5.9,7.1-8.2,7.1c-0.3,0-0.6,0-0.9-0.1c-0.9-0.3-1.6-0.9-1.9-1.8c-0.3-0.6-0.4-1.3-0.4-2.2c0-0.9,0.1-1.8,0.3-2.8c0.2-1,0.5-1.9,0.7-2.9c0.3-0.9,0.6-1.9,1-2.8c0.4-0.9,0.7-1.7,0.9-2.2c0.2-0.5,0.4-1,0.6-1.4c0.2-0.3,0.4-0.6,0.7-0.7c0.3-0.1,0.7-0.1,1,0.1c0.3,0.2,0.6,0.4,0.7,0.7c0.1,0.3,0.1,0.7-0.1,1c-1.1,2.2-2,4.6-2.7,7.1c-0.7,2.5-0.9,4.2-0.5,5.1c0,0.2,0.1,0.2,0.3,0.3c1,0.3,2.6-1.1,4.9-4.3c2.3-3.2,4.4-6.8,6.4-10.9c0.2-0.3,0.4-0.6,0.7-0.7s0.7-0.1,1,0c0.3,0.1,0.6,0.4,0.7,0.7c0.2,0.3,0.2,0.7,0,1c-1.1,3.1-1.9,6-2.5,8.7c-0.6,2.7-0.6,4.3-0.3,4.8c0.6,0.3,1.6,0.1,2.9-0.7c1.3-0.7,2.5-1.7,3.8-2.9c1.3-1.2,2.4-2.4,3.4-3.6C393.8,188.5,394.1,188.3,394.4,188.3z"/><path class="st1" d="M407.7,182.3c0.4,0,0.7,0.2,0.9,0.5c0.2,0.3,0.3,0.6,0.3,1c0,0.4-0.2,0.7-0.5,0.9c-0.3,0.2-0.6,0.3-1,0.3c-1.7-0.2-3.5,0.5-5.3,2.3c-1.8,1.8-3.3,4-4.6,6.8c-1.3,2.8-2.4,5.8-3.4,9.1c-0.2,0.6-0.5,0.9-1.1,1c0,0-0.1,0.1-0.1,0.1c-0.6,0-1-0.2-1.2-0.7c-0.9-1.9,0.6-10.8,4.7-26.8c0.1-0.3,0.3-0.6,0.6-0.8c0.3-0.2,0.7-0.2,1-0.1c0.3,0.1,0.6,0.3,0.8,0.6c0.2,0.3,0.2,0.6,0.2,1c-1.3,5.4-2.5,10.3-3.4,14.9c1.7-3.3,3.5-5.8,5.6-7.6C403.2,182.8,405.4,182,407.7,182.3z"/><path class="st1" d="M435.9,191c0.1,0.3,0.1,0.5,0.1,0.7c0,0.2-0.1,0.4-0.3,0.6c-0.2,0.2-0.3,0.3-0.6,0.4c-1.9,0.7-3.8,1.5-5.7,2.6c-0.3,5.4-1.3,10.4-3,15c-1.5,4-3.6,7.9-6.2,11.9c-2.6,4-5.4,7.3-8.2,10c-2.9,2.7-5.4,4.3-7.6,4.9c-0.5,0.1-0.9,0.2-1.4,0.2c-1.1,0-2-0.3-2.7-1c-1.7-1.5-2.2-3.9-1.5-7.3c0.6-3.2,2.2-7,4.8-11.3c2.6-4.3,6-8.7,10.2-13.1c4.2-4.4,8.5-8,13.1-10.7c0.1-3.9-0.2-6.7-0.9-8.4c-0.6,0.6-1.8,2.1-3.6,4.4c-1.8,2.2-3.2,4-4.3,5.2c-1.1,1.2-2.2,2.3-3.3,3.2c-1.2,1-2.1,1.5-2.9,1.6c-0.7,0.1-1.3-0.1-1.9-0.5c-1.7-1.4-1.6-5.1,0.3-10.9c0.9-2.8,2-5.4,3.1-7.8c0.2-0.3,0.4-0.5,0.8-0.7c0.4-0.1,0.7-0.1,1,0c0.3,0.2,0.6,0.4,0.7,0.8c0.1,0.4,0.1,0.7-0.1,1c-1.7,3.6-2.9,6.9-3.8,10.1s-1,4.9-0.4,5.4c0.9,0,3.8-3,8.6-9.1c1.9-2.4,3.2-3.9,3.9-4.6c0.7-0.7,1.4-1.1,1.9-1.2c0.5,0,0.8,0.1,1.1,0.3c1.5,1.3,2.3,4.5,2.3,9.6c1.6-0.8,3.2-1.5,4.7-2.1c0.3-0.1,0.7-0.1,1,0.1C435.6,190.4,435.8,190.6,435.9,191z M423.9,209.3c1.4-3.7,2.4-7.8,2.7-12.3c-4.1,2.7-8,6-11.8,10.1c-3.8,4.1-6.8,8.1-9.1,12c-2.3,3.9-3.8,7.4-4.3,10.3c-0.5,2.4-0.3,4,0.7,4.8c0.4,0.3,1,0.4,1.7,0.2c1.7-0.4,3.9-1.8,6.4-4.3c2.5-2.4,5.1-5.5,7.7-9.3C420.5,216.9,422.5,213.1,423.9,209.3z"/><path class="st1" d="M505.2,224.8c0.8,0.2,1,0.7,0.8,1.5c-0.2,0.7-0.7,1.1-1.4,1l-0.3-0.1c-17.7-5.9-30.4-15.4-38.2-28.6c-0.2-0.3-0.2-0.5-0.1-0.8c0.1-0.3,0.2-0.5,0.4-0.7c0.2-0.2,0.4-0.3,0.7-0.3c4.3-0.9,8.6-2.6,12.9-4.9c4.3-2.3,8.3-5,12-8.2c1.3-1.1,2.4-2.2,3.5-3.3c1.1-1.1,2.2-2.4,3.2-3.7c1-1.3,1.9-2.8,2.6-4.2c0.7-1.5,1.3-3,1.7-4.5c0.4-1.5,0.6-3.1,0.6-4.8c0-1.7-0.3-3.3-0.8-4.9c-0.5-1.8-1.4-3.3-2.6-4.6c-1.2-1.3-2.6-2.3-4.2-3c-1.6-0.7-3.3-1.2-5-1.6c-1.7-0.3-3.5-0.5-5.4-0.5c-4.2,0-8.6,0.6-13,1.9c-4.5,1.2-8.7,3-12.6,5.2c-4,2.2-7.5,5-10.8,8.4c-3.2,3.3-5.7,6.9-7.3,10.9c-0.2,0.5-0.6,0.8-1.1,0.8c-0.5,0-0.9-0.1-1.3-0.5c-0.3-0.4-0.4-0.8-0.2-1.3c1.4-3.4,3.4-6.5,6-9.5c2.5-2.9,5.3-5.5,8.3-7.6c3-2.1,6.2-4,9.8-5.6c1.6-0.8,3.4-1.5,5.4-2.1c1.9-0.6,4-1.2,6.2-1.7c2.2-0.5,4.5-0.9,6.7-1.1c2.3-0.2,4.5-0.3,6.7-0.2c2.2,0.1,4.3,0.5,6.3,1.1c2,0.6,3.7,1.5,5.3,2.6c1.6,1.1,2.9,2.5,4,4.4c1.1,1.8,1.7,4,2.1,6.4c0.4,3,0.1,6.1-0.7,9.1c-0.9,3-2.2,5.8-4,8.3c-1.8,2.5-4,4.9-6.5,7.2c-2.5,2.3-5.2,4.3-8.1,6.1c-2.9,1.8-5.8,3.3-8.7,4.6c-2.9,1.3-5.8,2.3-8.6,3C476.8,210.8,488.7,219.4,505.2,224.8z M467.5,158.3c0.1-0.5,0.4-0.9,0.9-1.1c0.5-0.2,0.9-0.1,1.3,0.1c0.4,0.3,0.6,0.7,0.5,1.2c-2.5,14.7-6.3,36.8-11.2,66.3c-0.1,0.5-0.4,0.9-0.9,1.1c-0.5,0.2-0.9,0.1-1.3-0.1c-0.4-0.3-0.6-0.7-0.5-1.2C458.8,209.8,462.5,187.7,467.5,158.3z"/><path class="st1" d="M545.2,191c0.4-0.1,0.5-0.1,0.5-0.1s0.1,0.1,0.4,0.3s0.5,0.5,0.5,0.9c0.1,0.4,0,0.7-0.3,1c-0.3,0.3-0.6,0.7-0.9,1.1c-0.4,0.4-0.9,1-1.7,1.8c-0.8,0.8-1.6,1.5-2.4,2.1c-0.8,0.6-1.7,1.1-2.7,1.6c-1,0.5-2,0.7-2.9,0.7s-1.7-0.2-2.5-0.7c-1.1-0.7-1.7-1.9-1.8-3.7c-2.5,3.1-5,4.4-7.2,3.8c-1.9-0.5-2.8-1.8-2.9-3.9c0-1.5,0.5-3.2,1.6-5.3s2.4-3.9,3.9-5.5c1.5-1.6,2.9-2.6,4.1-2.9c1.1-0.3,2-0.2,2.9,0.3c0.5,0.3,0.9,0.8,1.3,1.4c0,0,0-0.1,0-0.1c0.2-0.3,0.4-0.5,0.8-0.7c0.3-0.1,0.6-0.1,1,0c0.3,0.2,0.6,0.4,0.7,0.7c0.2,0.3,0.2,0.7,0,1c-0.5,1.3-1.1,2.7-1.8,4c-0.8,2.2-1.4,4-1.6,5.6c-0.2,1.6-0.1,2.6,0.4,3c0.5,0.4,1.2,0.5,1.9,0.2c0.8-0.2,1.5-0.6,2.2-1c0.7-0.4,1.5-1,2.3-1.7c0.8-0.7,1.4-1.3,2-1.9c0.5-0.6,1-1.1,1.4-1.6C544.5,191.2,544.8,191,545.2,191z M533.4,187.8c0.1-0.2,0.2-0.4,0.3-0.7c-0.2-0.2-0.3-0.4-0.3-0.6c-0.2-0.9-0.5-1.4-0.9-1.7c-0.1-0.1-0.2-0.1-0.3-0.1c-0.1,0-0.2,0-0.4,0.1c-1.4,0.4-3,2-4.9,4.6c-1.9,2.7-2.8,4.8-2.8,6.6c0,0.7,0.3,1.2,0.9,1.4c1.1,0.3,2.4-0.5,4-2.4S531.9,190.6,533.4,187.8z"/><path class="st1" d="M564.5,197.7c0.4-0.1,0.7,0,1,0.1c0.3,0.2,0.5,0.5,0.6,0.8c0.1,0.4,0,0.7-0.1,1c-0.1,0.2-0.3,0.5-0.5,0.9c-0.2,0.4-0.7,0.9-1.4,1.7c-0.7,0.8-1.4,1.5-2.2,2.1c-0.8,0.6-1.8,1.2-2.9,1.7c-1.2,0.5-2.4,0.7-3.6,0.7c-0.6,0-1.2-0.1-1.8-0.2c-3.7-0.7-6.3-3.2-7.6-7.5c-1.4-4.3-1.4-9.9-0.2-17c0.5-2.9,1.2-6,2.2-9.3c0.9-3.2,2.1-6.4,3.4-9.5c1.3-3.1,2.7-5.8,4.1-8.3c1.4-2.4,3-4.3,4.6-5.7c1.6-1.4,3.2-2,4.6-1.7c0.1,0,0.2,0,0.2,0.1c1.1,0.4,1.9,1.2,2.3,2.4c0.5,1.6,0.3,4.2-0.8,7.6c-1,3.4-2.4,6.8-4,10.3c-1.7,3.4-3.6,7.2-6,11.2c-2.3,4.1-4.1,7.1-5.3,9c-1.2,1.9-2.3,3.6-3.2,5.1c-0.1,0.1-0.2,0.2-0.3,0.3c0.5,6.2,2.6,9.7,6.5,10.4c1.1,0.2,2.1,0.1,3.2-0.2c1.1-0.3,2-0.8,2.7-1.3c0.7-0.5,1.4-1.1,2.1-1.9c0.7-0.7,1.1-1.2,1.3-1.5c0.2-0.3,0.4-0.6,0.5-0.8C563.9,198,564.1,197.8,564.5,197.7z M548.2,182.5c-0.4,2.2-0.6,4.2-0.7,6.2c3.1-4.9,6-9.8,8.6-14.6c2.6-4.8,4.8-9.5,6.6-14c1.8-4.5,2.4-7.5,1.9-9.2c-0.1-0.3-0.3-0.6-0.6-0.7h-0.1c-1.1,0-2.4,1-3.9,2.8c-1.5,1.9-3,4.3-4.5,7.3c-1.5,3-2.9,6.4-4.2,10.4C549.8,174.7,548.8,178.7,548.2,182.5z"/><path class="st1" d="M634.9,199.9c0.4-0.3,0.9-0.4,1.3-0.2c0.5,0.2,0.7,0.5,0.8,1c0.1,0.5-0.1,0.9-0.5,1.3c-0.4,0.3-1.5,1.3-3.4,2.8c-1.9,1.5-3.1,2.5-3.7,2.9c-0.6,0.4-1.7,1.3-3.4,2.7c-1.7,1.3-2.9,2.3-3.7,2.8c-0.8,0.5-2,1.4-3.5,2.5c-1.6,1.1-2.9,2-3.9,2.6c-1.1,0.6-2.3,1.3-3.7,2.1c-1.4,0.8-2.8,1.5-4.2,2.1c-1.3,0.6-2.7,1.1-4.1,1.6c-1.3,0.5-2.7,0.9-4,1.2c-1.3,0.4-2.9,0.7-4.6,1c-1.7,0.3-3.3,0.4-4.8,0.3c-1.5-0.1-2.9-0.4-4.2-0.8c-1.3-0.4-2.5-1.2-3.4-2.3c-0.9-1.1-1.5-2.5-1.8-4.2c-0.3-2.1-0.3-4.4,0.1-6.7c0.4-2.4,1.2-4.7,2.3-7c1.1-2.3,2.2-4.4,3.2-6.2c1.1-1.8,2.3-3.8,3.8-5.8c4.4-6.3,9.1-11.5,14.2-15.6c0,0-0.2,0-0.5,0.1c-0.3,0.1-0.6,0.1-0.8,0.1c-1.4,0.3-2.5,0.4-3.3,0.5c-0.8,0.1-1.9,0.1-3.2,0c-1.3-0.1-2.4-0.5-3.2-1c-1.3-0.9-2.1-2.1-2.4-3.8c-0.3-1.7-0.2-3.4,0.4-5.2c0.5-1.8,1.2-3.5,2-5c0.8-1.6,1.6-2.8,2.5-3.8c2.4-2.8,5.2-5.4,8.5-7.5s6.8-3.7,10.4-4.7c3.3-0.9,5.7-0.9,7.2,0.1c1.4,0.9,2.2,2.2,2.5,4c0.2,1.7-0.2,3.2-1.2,4.5c-0.3,0.4-0.8,0.5-1.3,0.4c-0.5-0.1-0.9-0.3-1.1-0.7c-0.2-0.4-0.1-0.8,0.2-1.3c0.6-0.7,0.9-1.3,1.1-1.9c0.1-0.6,0.1-1-0.2-1.4c-0.2-0.4-0.6-0.7-1.1-0.9c-0.5-0.2-1-0.4-1.5-0.5c-0.6-0.1-1.1-0.1-1.7-0.1c-0.6,0-1.1,0.1-1.5,0.2c-2,0.5-4.2,1.3-6.8,2.6c-5.5,2.8-9.7,6.3-12.5,10.3c-1.9,2.7-2.9,5.3-3,7.9c-0.1,1.8,0.2,3.1,0.8,4c0.6,0.8,1.8,1.2,3.5,1.2c4.9,0,9.5-1.1,13.9-3.2c1.2-0.6,1.8-1,1.9-1c0.5-0.2,0.9-0.2,1.3,0.1c0.4,0.3,0.5,0.7,0.5,1.2s-0.3,0.9-0.7,1.2c-7.4,3.6-14.5,9.9-21.3,18.9c-3,4-5.5,7.9-7.4,11.7c-1.9,3.8-2.9,7.6-3.1,11.3c-0.1,1.8,0.2,3.3,0.9,4.5c0.6,1.2,1.5,2,2.6,2.5c1.1,0.5,2.4,0.8,3.9,0.8c1.5,0.1,3,0,4.5-0.3c1.5-0.3,3.1-0.7,4.8-1.2s3.1-1,4.4-1.5c1.2-0.5,2.4-1,3.5-1.5c1.4-0.7,2.8-1.4,4.2-2.2c1.4-0.8,2.8-1.7,4.3-2.6c1.5-1,2.8-1.8,3.9-2.6c1.1-0.8,2.5-1.8,4.1-3c1.6-1.3,2.8-2.2,3.7-2.9c0.8-0.7,2.1-1.7,3.9-3.2C633,201.5,634.2,200.5,634.9,199.9z"/><path class="st1" d="M684.7,172.6c0.3-0.1,0.3,0.4,0.6,0.6c0.3,0.2,1.5-0.4,1.7,0c0.1,0.3,0.2,1,0,1.3c-3,0.1-3,0.1-7,0.4c-3.3,0.3-7.3,0.6-12.2,0.2c-1.7-0.2-3.4-0.3-5-0.4c-1.9,3.6-3.8,7.1-5.6,10.4c-0.3,0.7-0.6,1.5-1.1,2.2c-0.1,0.3-0.1,0.4-0.1,0.5c-0.6,3.2-0.7,6.5-0.5,9.8c0.2,3.3,0.8,5.3,1.7,6.1c0.3,0.3,0.7,0.4,1.1,0.4c0.8-0.1,1.7-0.6,2.6-1.5c0.9-0.9,1.6-1.7,2.2-2.5c0.2-0.3,0.5-0.5,0.8-0.5c0.4-0.1,0.7,0,1,0.2c0.3,0.2,0.5,0.5,0.6,0.8c0.1,0.4,0,0.7-0.2,1c-0.2,0.2-0.3,0.5-0.5,0.7c-0.2,0.2-0.5,0.6-1,1.2c-0.5,0.5-1,1-1.4,1.4c-0.5,0.4-1,0.8-1.7,1.2c-0.7,0.4-1.3,0.6-2,0.7c-0.2,0-0.4,0.1-0.6,0.1c-1,0-1.9-0.3-2.7-1c-1.2-1-1.9-2.9-2.3-5.6c-0.4-2.7-0.4-5.7-0.1-8.8c-1.6,1.6-3.8,3.2-6.5,4.8c1,2.6,0.8,4.9-0.6,6.8c-1.4,2.1-3.2,3.7-5.5,5c-2.2,1.3-4.3,1.9-6,1.9c-0.5,0-0.9-0.1-1.3-0.2c-1.6-0.4-2.4-1.3-2.6-2.8c-0.1-0.8,0.1-1.6,0.4-2.4c0.4-0.8,0.8-1.5,1.3-2.1c0.5-0.6,1.3-1.3,2.4-2.1c1.1-0.8,2-1.4,2.8-1.9s1.9-1.1,3.3-2c1.2-0.7,2-1.1,2.3-1.4c-0.6-0.9-1.5-2.2-2.7-3.9c-0.6-0.8-1.1-1.5-1.4-1.9c-0.3-0.4-0.6-0.9-0.9-1.5c-0.3-0.6-0.5-1.1-0.5-1.5c-0.1-1.1,0-2.1,0.4-3s0.9-1.8,1.6-2.5c0.7-0.7,1.4-1.3,2.1-1.8c0.7-0.5,1.4-0.9,2.3-1.3c0.8-0.3,1.4-0.6,1.7-0.7c0.3-0.1,0.6-0.2,0.9-0.3c0.3-0.1,0.7-0.1,1,0.1c0.3,0.2,0.5,0.5,0.6,0.8c0.1,0.3,0,0.7-0.1,1c-0.2,0.3-0.5,0.5-0.8,0.7c-0.2,0-0.4,0.1-0.8,0.3c-0.4,0.1-1,0.4-1.8,0.8c-0.8,0.4-1.5,0.8-2.1,1.3c-0.6,0.5-1.2,1.1-1.7,1.9c-0.5,0.8-0.7,1.6-0.6,2.5c0,0.4,0.8,1.6,2.3,3.5c1.4,1.7,2.3,3.1,2.9,4c4.1-2.5,6.9-5,8.4-7.4c0.9-4,1.8-8,2.9-12c-2.2-0.1-4.2-0.1-6-0.1c-1.8,0-3.3,0-4.5,0.1c-1.2,0.1-2.2,0.2-3.1,0.3c-0.9,0.1-1.6,0.2-2.1,0.4c-0.5,0.2-0.9,0.3-1.2,0.4c-0.3,0.1-0.5,0.3-0.7,0.4c-0.2,0.3-0.5,0.4-0.9,0.4c-0.4,0-0.7-0.2-1-0.5c-0.2-0.3-0.3-0.6-0.3-0.9c0-0.4,0.1-0.7,0.4-0.9c2.1-1.9,8.8-2.6,20.1-2.1c3.3-11.6,6.2-18.3,8.9-20.1c0.8-0.5,1.6-0.7,2.4-0.5c0.8,0.2,1.4,0.7,1.8,1.5c1.1,2.4-0.9,8.6-5.8,18.6c-0.1,0.2-0.2,0.5-0.4,0.9c1.3,0.1,2.6,0.2,3.9,0.3c2,0.2,3.8,0.2,5.4,0.1c1.6-0.1,3,0.2,4.2,0s1.8,0.3,2.6,0c0.8-0.3,1.4-0.5,1.9-0.4c4.3,0.6,1.4,1.8,1.4,0.4C683.7,172.2,684.4,172.7,684.7,172.6z M643.7,201.4c0.8-1.1,0.9-2.4,0.4-3.9c-0.7,0.5-1.4,0.9-2.1,1.3c-1,0.6-1.8,1.1-2.3,1.4c-0.5,0.3-1.2,0.7-2.1,1.3c-0.9,0.5-1.5,1-1.9,1.3c-0.4,0.4-0.9,0.8-1.4,1.2c-0.5,0.5-0.8,0.9-1,1.3c-0.2,0.4-0.2,0.8-0.2,1.2c0,0.3,0.2,0.5,0.6,0.6c1.1,0.3,2.8-0.1,4.9-1.2C640.7,204.8,642.4,203.3,643.7,201.4z M658.4,177.4c0.5-0.9,1-1.8,1.5-2.9c-0.2,0-0.4-0.1-0.7-0.1C658.9,175.6,658.6,176.5,658.4,177.4z M667.6,153.8c-2.1,1.3-4.6,7.3-7.7,18c0.3,0,0.7,0,1.3,0.1c1.6-3.2,2.9-6,4-8.6c1.1-2.6,1.9-4.7,2.4-6.4c0.5-1.7,0.5-2.8,0.2-3.2C667.9,153.6,667.8,153.7,667.6,153.8z"/><path class="st1" d="M686.7,191c0.4-0.1,0.5-0.1,0.5-0.1s0.1,0.1,0.4,0.3c0.3,0.2,0.5,0.5,0.5,0.9c0.1,0.4,0,0.7-0.3,1c-0.3,0.3-0.6,0.7-0.9,1.1c-0.4,0.4-0.9,1-1.7,1.8c-0.8,0.8-1.6,1.5-2.4,2.1c-0.8,0.6-1.7,1.1-2.7,1.6c-1,0.5-2,0.7-2.9,0.7s-1.7-0.2-2.5-0.7c-1.1-0.7-1.7-1.9-1.8-3.7c-2.5,3.1-5,4.4-7.2,3.8c-1.9-0.5-2.8-1.8-2.8-3.9c0-1.5,0.5-3.2,1.6-5.3s2.4-3.9,3.9-5.5s2.9-2.6,4.1-2.9c1.1-0.3,2-0.2,2.9,0.3c0.5,0.3,0.9,0.8,1.3,1.4c0,0,0-0.1,0-0.1c0.2-0.3,0.4-0.5,0.8-0.7c0.3-0.1,0.6-0.1,1,0c0.3,0.2,0.6,0.4,0.7,0.7c0.2,0.3,0.2,0.7,0,1c-0.5,1.3-1.1,2.7-1.8,4c-0.8,2.2-1.4,4-1.6,5.6c-0.2,1.6-0.1,2.6,0.4,3c0.5,0.4,1.2,0.5,1.9,0.2c0.8-0.2,1.5-0.6,2.2-1c0.7-0.4,1.5-1,2.3-1.7c0.8-0.7,1.4-1.3,2-1.9c0.5-0.6,1-1.1,1.4-1.6C686.1,191.2,686.4,191,686.7,191z M674.9,187.8c0.1-0.2,0.2-0.4,0.3-0.7c-0.2-0.2-0.3-0.4-0.3-0.6c-0.2-0.9-0.5-1.4-0.9-1.7c-0.1-0.1-0.2-0.1-0.3-0.1c-0.1,0-0.2,0-0.4,0.1c-1.4,0.4-3,2-4.9,4.6c-1.9,2.7-2.8,4.8-2.8,6.6c0,0.7,0.3,1.2,0.9,1.4c1.1,0.3,2.4-0.5,4-2.4S673.4,190.6,674.9,187.8z"/><path class="st1" d="M717.4,169.5c0.3-0.1,0.7-0.1,1,0c0.3,0.1,0.6,0.4,0.7,0.7c0.1,0.3,0.1,0.7,0,1c-0.6,1.4-2.5,2.7-5.6,3.7c-3.2,1-7.2,1.3-12.1,0.9c-1.6-0.2-3.2-0.3-4.8-0.4c-2,4-4.3,8.5-7,13.3c-0.6,3.2-0.7,6.4-0.5,9.6c0.2,3.3,0.8,5.3,1.7,6c0.3,0.3,0.7,0.4,1.1,0.3c0.8-0.1,1.7-0.6,2.6-1.5c0.9-0.9,1.6-1.7,2.2-2.5c0.2-0.3,0.5-0.5,0.8-0.6c0.4-0.1,0.7,0,1,0.2c0.3,0.2,0.5,0.5,0.6,0.9c0.1,0.4,0,0.7-0.2,1c-0.2,0.3-0.4,0.6-0.7,1c-0.3,0.4-0.8,0.9-1.4,1.6c-0.6,0.7-1.3,1.2-2.1,1.7c-0.8,0.5-1.6,0.8-2.4,0.9c-0.2,0-0.3,0-0.5,0c-1,0-1.9-0.3-2.7-1c-1-0.9-1.7-2.5-2.1-4.9c-0.4-2.4-0.6-4.7-0.5-7.1c0.1-2.3,0.3-4.5,0.7-6.4c0,0,0-0.1,0.1-0.1c0.8-3.9,1.8-8.2,3.1-12.9c-10.2-0.5-15.8-1.7-17.3-0.3c-0.2,0.2-1-0.2-1.3-0.2c-0.4,0-0.7,0.6-1,0.3c-0.2-0.3-1.9-1-1.2-0.3c0.3,0.3,1.2,0.2,1.5-0.1c2.1-1.9,8.8-2.6,20.1-2.1c3.3-11.6,6.2-18.3,8.9-20.1c0.8-0.5,1.6-0.7,2.4-0.5c0.8,0.2,1.4,0.7,1.7,1.5c0.1,0.2,0.2,0.5,0.2,0.8c0,0.4,0,1-0.1,2.1c-0.1,1-0.4,2.2-0.7,3.5c-0.4,1.3-1,3.2-1.9,5.5c-0.9,2.3-2.1,4.9-3.4,7.8c1.2,0.1,2.5,0.2,3.8,0.3c1.6,0.2,3.1,0.2,4.5,0.2c1.4,0,2.6-0.1,3.7-0.3c1.1-0.2,2.1-0.4,2.9-0.6c0.8-0.2,1.5-0.5,2.1-0.8c0.6-0.3,1-0.5,1.3-0.7c0.3-0.2,0.5-0.4,0.6-0.6C716.8,169.9,717,169.7,717.4,169.5z M691.7,178.9c0.6-1.2,1.2-2.4,1.9-3.8c-0.1,0-0.2,0-0.3,0c-0.1,0-0.2,0-0.3,0s-0.2,0-0.3,0C692.3,176.4,692,177.6,691.7,178.9z M701.1,154.4c-2.1,1.4-4.6,7.4-7.7,18c0.3,0,0.8,0.1,1.4,0.1c2.3-4.8,4.1-8.8,5.3-12.2c1.2-3.3,1.6-5.4,1.2-6.1C701.3,154.3,701.3,154.4,701.1,154.4z"/><path class="st1" d="M716.3,191.4c0.4,0,0.7,0.1,0.9,0.4c0.3,0.3,0.4,0.6,0.4,0.9c0,0.4-0.1,0.7-0.3,0.9c-0.6,0.6-1.3,1.3-2.1,2s-2,1.7-3.5,3c-1.5,1.2-3.2,2.3-4.8,3c-1.7,0.8-3.2,1.2-4.6,1.2c-1.4,0-2.6-0.4-3.6-1.3c-1-1-1.7-2.2-1.9-3.7c-0.2-1.5-0.2-3.1,0.2-4.7c0.4-1.6,1-3.2,1.9-4.8c1.1-2,2.4-3.6,3.9-4.9c1.6-1.3,3.1-1.8,4.7-1.3c1.5,0.4,2.4,1.2,2.6,2.4c0.1,0.8,0.1,1.7-0.4,3.1c-0.4,1.2-1.4,2.8-2.9,3.6c-1.5,0.9-2.7,1.4-4,2.2c-1.1,0.7-2.3,1.3-3.5,2c-0.2,1.9,0.2,3.3,1.1,4.2c0.6,0.6,1.4,0.8,2.4,0.6c1-0.2,2.1-0.6,3.2-1.1c1.1-0.6,2.3-1.3,3.5-2.2c1.2-0.9,2.3-1.8,3.3-2.6c1-0.9,1.9-1.7,2.6-2.5C715.7,191.6,716,191.4,716.3,191.4z M701.2,189.7c-0.3,0.6-0.6,1.2-0.9,1.9c2-1.4,4.5-2.2,5.9-3.4c1.4-1.3,1.2-2.7,1.2-3.2c0,0-0.2-0.1-0.6-0.2c-0.1,0-0.2-0.1-0.3-0.1c-0.8,0-1.6,0.5-2.6,1.4C702.9,187,702,188.3,701.2,189.7z"/><path class="st1" d="M523.7,191.4c0.4,0,0.7,0.1,0.9,0.4c0.3,0.3,0.4,0.6,0.4,0.9c0,0.4-0.1,0.7-0.3,0.9c-0.6,0.6-1.3,1.3-2.1,2s-2,1.7-3.5,3c-1.5,1.2-3.2,2.3-4.8,3c-1.7,0.8-3.2,1.2-4.6,1.2c-1.4,0-2.6-0.4-3.6-1.3c-1-1-1.7-2.2-1.9-3.7c-0.2-1.5-0.2-3.1,0.2-4.7c0.4-1.6,1-3.2,1.9-4.8c1.1-2,2.4-3.6,3.9-4.9c1.6-1.3,3.1-1.8,4.7-1.3c1.5,0.4,2.4,1.2,2.6,2.4c0.1,0.8,0.1,1.7-0.4,3.1c-0.4,1.2-1.4,2.8-2.9,3.6c-1.5,0.9-2.7,1.4-4,2.2c-1.1,0.7-2.3,1.3-3.5,2c-0.2,1.9,0.2,3.3,1.1,4.2c0.6,0.6,1.4,0.8,2.4,0.6c1-0.2,2.1-0.6,3.2-1.1c1.1-0.6,2.3-1.3,3.5-2.2c1.2-0.9,2.3-1.8,3.3-2.6c1-0.9,1.9-1.7,2.6-2.5C523,191.6,523.3,191.4,523.7,191.4z M508.6,189.7c-0.3,0.6-0.6,1.2-0.9,1.9c2-1.4,4.5-2.2,5.9-3.4c1.4-1.3,1.2-2.7,1.2-3.2c0,0-0.2-0.1-0.6-0.2c-0.1,0-0.2-0.1-0.3-0.1c-0.8,0-1.6,0.5-2.6,1.4C510.2,187,509.4,188.3,508.6,189.7z"/><g><path class="st2" d="M87.9,121.4h-1.2l0.7-17.6h1.3l0.1,0.4c0.6,2.4,1.5,4.6,2.6,6.8c1.1,2.1,2.5,4,4.2,5.6c1.7,1.6,3.6,2.8,5.8,3.8c2.2,0.9,4.6,1.4,7.3,1.4c2.3,0,4.4-0.3,6.4-1c1.9-0.7,3.7-1.7,5.2-3c1.5-1.3,2.6-2.8,3.5-4.7c0.8-1.8,1.2-3.8,1.2-6.1c0-2.1-0.7-4-2-5.7c-1.3-1.7-2.9-3.2-4.9-4.6c-1.9-1.4-3.9-2.6-6.1-3.7c-2.1-1.1-4-2.1-5.6-2.9c-2.4-1.2-4.7-2.5-7-3.9c-2.3-1.4-4.3-3-6.1-4.7c-1.8-1.7-3.2-3.7-4.3-5.8c-1.1-2.2-1.6-4.7-1.6-7.4c0-3.2,0.8-5.8,2.4-8c1.6-2.1,3.6-3.9,6-5.2c2.4-1.3,5.1-2.3,8-2.9c2.9-0.6,5.6-0.9,8.2-0.9c1.7,0,3.1,0.1,4.4,0.3c1.3,0.2,2.5,0.5,3.7,0.8c1.2,0.4,2.4,0.8,3.7,1.2c1.3,0.4,2.6,0.9,4.1,1.4l0.7-1.4h1.2v17.3h-1.3l-0.1-0.4c-1.4-4.5-3.4-8-6.1-10.5c-2.7-2.5-6.6-3.8-11.7-3.8c-1.7,0-3.4,0.2-5,0.7c-1.6,0.5-3,1.2-4.3,2.2c-1.2,1-2.2,2.1-3,3.5c-0.8,1.4-1.1,2.9-1.1,4.7c0,1.6,0.4,3,1.1,4.3c0.8,1.3,1.7,2.4,2.8,3.5c1.1,1,2.4,1.9,3.8,2.8c1.4,0.8,2.7,1.6,3.9,2.2c2.7,1.7,5.6,3.3,8.6,4.9c3,1.6,5.8,3.4,8.3,5.4c2.5,2,4.6,4.3,6.2,7c1.7,2.7,2.5,5.9,2.5,9.8c0,3.4-0.8,6.3-2.4,8.9c-1.6,2.5-3.6,4.7-6.1,6.3c-2.5,1.7-5.3,3-8.3,3.8c-3.1,0.9-6.1,1.3-9.2,1.3c-3.6,0-7.2-0.6-10.6-1.8c-3.5-1.2-6.6-3-9.3-5.3L87.9,121.4z"/><path class="st2" d="M141.3,54.8v-1.1h20.8v1.1c-1.5,0.5-2.7,1.3-3.9,2.4c-1.1,1.1-1.7,2.4-1.7,3.9v40.3c0,3.8,0.5,7.1,1.5,9.9c1,2.8,2.4,5,4.1,6.8s3.7,3,5.8,3.9c2.2,0.8,4.4,1.2,6.6,1.2c2.4,0,4.7-0.4,6.9-1.3c2.2-0.9,4.3-2.1,6-3.7c1.8-1.6,3.2-3.5,4.3-5.8c1.1-2.3,1.6-4.9,1.6-7.8V61c0-0.7-0.2-1.4-0.7-2.1c-0.5-0.7-1.1-1.3-1.8-1.8c-0.7-0.5-1.5-1-2.3-1.4c-0.8-0.4-1.6-0.7-2.3-0.9v-1.1h19.7v1.1c-0.7,0.2-1.4,0.5-2.3,0.9s-1.7,0.9-2.4,1.4c-0.7,0.5-1.3,1.1-1.8,1.8c-0.5,0.7-0.7,1.4-0.7,2.1v43.7c0,3.8-0.7,7.1-2.2,10.1c-1.5,2.9-3.5,5.4-5.9,7.4c-2.5,2-5.3,3.5-8.4,4.5c-3.1,1-6.3,1.5-9.6,1.5c-3.2,0-6.4-0.5-9.5-1.6c-3.1-1.1-5.9-2.7-8.3-4.8c-2.4-2.1-4.4-4.9-5.9-8.1c-1.5-3.3-2.2-7.1-2.2-11.6V61c0-1.5-0.5-2.8-1.6-3.9C144,56.1,142.7,55.3,141.3,54.8z"/><path class="st2" d="M213.8,121.4h-1.2l0.7-17.6h1.3c0.6,2.4,1.5,4.7,2.6,6.8c1.2,2.2,2.6,4.1,4.3,5.7c1.7,1.7,3.6,3,5.8,3.9c2.2,1,4.6,1.4,7.3,1.4c2.3,0,4.4-0.3,6.4-1c1.9-0.7,3.7-1.7,5.2-3c1.5-1.3,2.6-2.8,3.5-4.7c0.8-1.8,1.2-3.8,1.2-6.1c0-1.9-0.5-3.6-1.5-5.2c-1-1.5-2.4-2.9-4.1-4.1c-1.7-1.2-3.7-2.4-5.8-3.5s-4.4-2.2-6.7-3.3c-2.4-1.2-4.7-2.4-7-3.8c-2.3-1.3-4.4-2.8-6.2-4.5c-1.8-1.7-3.3-3.6-4.4-5.7c-1.1-2.1-1.7-4.6-1.7-7.4c0-3.2,0.8-5.8,2.4-8c1.6-2.1,3.6-3.9,6-5.2c2.4-1.3,5.1-2.3,8-2.9c2.9-0.6,5.6-0.9,8.2-0.9c1.8,0,3.5,0.1,4.9,0.3c1.4,0.2,2.7,0.5,3.9,0.8c1.2,0.3,2.3,0.7,3.5,1.2c1.1,0.5,2.3,1,3.6,1.5l0.7-1.5h1.2v17.4h-1.3c-0.7-2.2-1.5-4.3-2.5-6.1c-1-1.8-2.2-3.4-3.7-4.7c-1.4-1.3-3.1-2.3-5-3c-1.9-0.7-4.2-1-6.7-1c-1.7,0-3.4,0.2-5,0.7c-1.6,0.5-3,1.2-4.3,2.2c-1.2,1-2.2,2.1-3,3.5c-0.8,1.4-1.1,2.9-1.1,4.7c0,1.6,0.4,3,1.2,4.3c0.8,1.3,1.8,2.5,3.2,3.6c1.3,1.1,2.9,2.1,4.6,3.1c1.7,1,3.6,1.9,5.5,2.9c2.6,1.3,5.2,2.6,7.9,4.1c2.7,1.5,5.2,3.1,7.3,5c2.2,1.9,4,4.1,5.3,6.6c1.4,2.5,2.1,5.4,2.1,8.8c0,3.4-0.8,6.3-2.4,8.9c-1.6,2.5-3.6,4.7-6.1,6.3c-2.5,1.7-5.3,3-8.3,3.8c-3.1,0.9-6.1,1.3-9.2,1.3c-3.6,0-7.2-0.6-10.6-1.8c-3.5-1.2-6.6-3-9.3-5.3L213.8,121.4z"/><path class="st2" d="M262.5,126.5l0.4-1.2c0.7-0.2,1.5-0.5,2.5-0.9c1-0.4,1.9-0.9,2.9-1.4c0.9-0.6,1.8-1.1,2.5-1.7c0.8-0.6,1.2-1.2,1.4-1.8L300.2,53l27,67.1c0.5,1.3,1.5,2.4,3,3.3c1.5,0.9,2.8,1.5,4.2,1.9l0.4,1.2h-20.8l-0.3-1.1c1.2-0.5,2.1-1.4,2.8-2.5c0.7-1.2,0.7-2.3,0.1-3.5l-5.7-14.5h-26.2l-6.1,15.5c0,0.7,0.2,1.4,0.5,1.9c0.4,0.5,0.8,1,1.3,1.4c0.5,0.4,1.1,0.7,1.7,1c0.6,0.3,1.2,0.5,1.7,0.8l-0.3,1.1H262.5z M287.2,98.7h21.1l-10.2-25.8L287.2,98.7z"/><path class="st2" d="M340.5,53.8h15.8l36.7,50.8V61c0-0.7-0.2-1.4-0.7-2.1c-0.5-0.7-1.1-1.3-1.8-1.8c-0.7-0.5-1.5-1-2.3-1.4c-0.8-0.4-1.6-0.7-2.3-0.9v-1.1h19.7v1.1c-0.7,0.2-1.4,0.5-2.3,0.9c-0.9,0.4-1.7,0.9-2.4,1.4c-0.7,0.5-1.3,1.1-1.8,1.8c-0.5,0.7-0.7,1.4-0.7,2.1v68.4l-46.9-64.9v54.7c0,0.7,0.2,1.4,0.7,2.1c0.5,0.7,1.1,1.3,1.8,1.8c0.7,0.5,1.5,1,2.4,1.4c0.9,0.4,1.6,0.7,2.3,0.9v1.1H339v-1.1c0.7-0.2,1.5-0.5,2.3-0.9c0.8-0.4,1.6-0.9,2.3-1.4c0.7-0.5,1.3-1.1,1.8-1.8c0.5-0.7,0.7-1.4,0.7-2.1V62.5c0-1.5-0.1-2.7-0.2-3.5c-0.2-0.8-0.5-1.4-0.9-1.9c-0.4-0.5-1-0.9-1.7-1.2c-0.7-0.3-1.7-0.8-2.9-1.3V53.8z"/><path class="st2" d="M438.9,126.5v-1.1c0.7-0.2,1.5-0.5,2.3-0.9c0.8-0.4,1.6-0.9,2.3-1.4c0.7-0.6,1.3-1.2,1.8-1.8c0.5-0.7,0.7-1.4,0.7-2.1V58.4c0-1.5-0.5-2.8-1.6-3.9c-1.1-1.1-2.4-1.8-3.8-2.4v-1.1l15.9,0.1l22.7,56.8l21.9-56.8h15.8v1.1c-1.5,0.5-2.7,1.2-3.8,2.3c-1.1,1.1-1.6,2.3-1.6,3.9v60.7c0,1.5,0.5,2.8,1.6,3.9c1.1,1.1,2.4,1.8,3.8,2.4v1.1h-20.8v-1.1c1.5-0.5,2.7-1.3,3.9-2.4c1.1-1.1,1.7-2.4,1.7-3.9V64.9L476.8,129l-25.5-63v53.2c0,0.7,0.2,1.4,0.7,2.1c0.5,0.7,1.1,1.3,1.8,1.8c0.7,0.5,1.5,1,2.4,1.4c0.9,0.4,1.6,0.7,2.3,0.9v1.1H438.9z"/><path class="st2" d="M526.2,126.5l0.4-1.2c0.7-0.2,1.5-0.5,2.5-0.9c1-0.4,1.9-0.9,2.9-1.4c0.9-0.6,1.8-1.1,2.5-1.7c0.8-0.6,1.2-1.2,1.4-1.8L563.9,53l27,67.1c0.5,1.3,1.5,2.4,3,3.3c1.5,0.9,2.8,1.5,4.2,1.9l0.4,1.2h-20.8l-0.3-1.1c1.2-0.5,2.1-1.4,2.8-2.5c0.7-1.2,0.7-2.3,0.1-3.5l-5.7-14.5h-26.2l-6.1,15.5c0,0.7,0.2,1.4,0.5,1.9c0.4,0.5,0.8,1,1.3,1.4c0.5,0.4,1.1,0.7,1.7,1s1.2,0.5,1.7,0.8l-0.3,1.1H526.2z M550.9,98.7H572l-10.2-25.8L550.9,98.7z"/><path class="st2" d="M594,66.7l0.8-13h58.9l0.8,13h-1.2c-0.2-0.7-0.5-1.5-1-2.4c-0.5-0.9-1.1-1.7-1.7-2.5c-0.7-0.8-1.3-1.5-2-2c-0.7-0.5-1.4-0.8-2.1-0.8h-17.1v60.2c0,1.5,0.5,2.8,1.6,3.9c1.1,1.1,2.3,1.8,3.7,2.4v1.1h-20.7v-1.1c1.5-0.5,2.7-1.3,3.8-2.4c1.1-1.1,1.6-2.3,1.6-3.9V58.9h-17.1c-0.7,0-1.4,0.3-2.1,0.8c-0.7,0.5-1.4,1.2-2.1,2c-0.7,0.8-1.2,1.6-1.7,2.5c-0.5,0.9-0.8,1.7-1,2.4H594z"/><path class="st2" d="M661.1,126.5v-1.1c1.5-0.5,2.7-1.3,3.8-2.4c1.1-1.1,1.6-2.3,1.6-3.9V61c0-1.5-0.5-2.8-1.6-3.9c-1.1-1.1-2.4-1.8-3.8-2.4v-1.1h20.8v1.1c-1.5,0.5-2.7,1.3-3.8,2.4c-1.1,1.1-1.6,2.3-1.6,3.9v22.5h39.2V61c0-1.5-0.5-2.8-1.6-3.9c-1.1-1.1-2.3-1.8-3.8-2.4v-1.1H731v1.1c-1.4,0.5-2.6,1.3-3.7,2.4c-1.1,1.1-1.6,2.3-1.6,3.9v58.2c0,1.5,0.5,2.8,1.6,3.9c1.1,1.1,2.3,1.8,3.7,2.4v1.1h-20.7v-1.1c1.5-0.5,2.7-1.3,3.8-2.4c1.1-1.1,1.6-2.3,1.6-3.9V88.9h-5.4L681.9,89h-5.4v30.1c0,1.5,0.5,2.8,1.6,3.9c1.1,1.1,2.4,1.8,3.8,2.4v1.1H661.1z"/><path class="st2" d="M739.5,126.5v-1.1c1.5-0.5,2.7-1.3,3.8-2.4c1.1-1.1,1.6-2.3,1.6-3.9V61c0-1.5-0.5-2.8-1.6-3.9c-1.1-1.1-2.4-1.8-3.8-2.4v-1.1h47.3l0.8,13h-1.2c-0.2-0.7-0.5-1.5-1-2.4c-0.5-0.9-1.1-1.7-1.7-2.5c-0.7-0.8-1.4-1.5-2.1-2c-0.7-0.5-1.5-0.8-2.2-0.8h-24.5v25.4h18.3c0.7,0,1.4-0.2,2-0.7c0.6-0.5,1.2-1.1,1.8-1.8c0.6-0.7,1-1.5,1.4-2.3c0.4-0.8,0.7-1.6,0.9-2.2h1.2v19.5h-1.2c-0.2-0.7-0.5-1.4-0.9-2.2c-0.4-0.8-0.9-1.6-1.4-2.3c-0.6-0.7-1.2-1.3-1.8-1.8c-0.6-0.5-1.3-0.7-2-0.7h-18.3v31.7h24.5c0.7,0,1.6-0.3,2.5-1c0.9-0.7,1.8-1.5,2.7-2.4c0.9-0.9,1.6-1.9,2.3-2.9c0.7-1,1.1-1.9,1.3-2.5h1.3l-2.8,14.1H739.5z"/><path class="st2" d="M791.7,54.9v-1.2h20.8v1.1c-3,1.1-4.3,3.2-3.7,6.1l10.9,40.9l10.9-40.9c0.3-0.8,0.2-1.5-0.1-2.2c-0.4-0.7-0.9-1.3-1.5-1.8c-0.7-0.5-1.4-1-2.1-1.3c-0.8-0.4-1.4-0.6-2-0.8v-1.1h20.8v1.1c-3,1.1-4.3,3.2-3.7,6.1l10.9,40.9l10.9-40.9c0.2-0.7,0.1-1.4-0.1-2.1c-0.3-0.7-0.7-1.3-1.3-1.8c-0.6-0.5-1.3-1-2-1.4c-0.7-0.4-1.4-0.7-1.9-0.9v-1.1H878v1.2c-0.7,0.2-1.6,0.5-2.5,0.9c-1,0.4-1.9,0.9-2.8,1.4c-0.9,0.5-1.7,1.1-2.3,1.8c-0.7,0.7-1.1,1.4-1.3,2.1l-18.6,69.5l-16.5-62l-16.5,62.1l-18.4-69.6c-0.4-1.5-1.3-2.8-2.7-3.9C794.8,56.1,793.3,55.3,791.7,54.9z"/><path class="st2" d="M881.5,121.4h-1.2l0.7-17.6h1.3c0.6,2.4,1.5,4.7,2.6,6.8c1.2,2.2,2.6,4.1,4.3,5.7c1.7,1.7,3.6,3,5.8,3.9c2.2,1,4.6,1.4,7.3,1.4c2.3,0,4.4-0.3,6.4-1c1.9-0.7,3.7-1.7,5.2-3s2.6-2.8,3.5-4.7c0.8-1.8,1.2-3.8,1.2-6.1c0-1.9-0.5-3.6-1.5-5.2c-1-1.5-2.4-2.9-4.1-4.1c-1.7-1.2-3.7-2.4-5.8-3.5s-4.4-2.2-6.7-3.3c-2.4-1.2-4.7-2.4-7-3.8c-2.3-1.3-4.4-2.8-6.2-4.5c-1.8-1.7-3.3-3.6-4.4-5.7c-1.1-2.1-1.7-4.6-1.7-7.4c0-3.2,0.8-5.8,2.4-8c1.6-2.1,3.6-3.9,6-5.2c2.4-1.3,5.1-2.3,8-2.9c2.9-0.6,5.6-0.9,8.2-0.9c1.8,0,3.5,0.1,4.9,0.3c1.4,0.2,2.7,0.5,3.9,0.8c1.2,0.3,2.3,0.7,3.5,1.2c1.1,0.5,2.3,1,3.6,1.5l0.7-1.5h1.2v17.4h-1.3c-0.7-2.2-1.5-4.3-2.5-6.1c-1-1.8-2.2-3.4-3.7-4.7c-1.4-1.3-3.1-2.3-5-3c-1.9-0.7-4.2-1-6.7-1c-1.7,0-3.4,0.2-5,0.7c-1.6,0.5-3,1.2-4.3,2.2c-1.2,1-2.2,2.1-3,3.5c-0.8,1.4-1.1,2.9-1.1,4.7c0,1.6,0.4,3,1.2,4.3c0.8,1.3,1.8,2.5,3.2,3.6c1.3,1.1,2.9,2.1,4.6,3.1c1.7,1,3.6,1.9,5.5,2.9c2.6,1.3,5.2,2.6,7.9,4.1c2.7,1.5,5.2,3.1,7.3,5c2.2,1.9,4,4.1,5.3,6.6c1.4,2.5,2.1,5.4,2.1,8.8c0,3.4-0.8,6.3-2.4,8.9c-1.6,2.5-3.6,4.7-6.1,6.3c-2.5,1.7-5.3,3-8.3,3.8c-3.1,0.9-6.1,1.3-9.2,1.3c-3.6,0-7.2-0.6-10.6-1.8c-3.5-1.2-6.6-3-9.3-5.3L881.5,121.4z"/></g></g><g id="Layer_4"></g></svg>